Coordinates
version=1
nRows=13
nColumns=63
inDegrees=yes

Units are S.I. units (second, meters, Newtons, ...)
If the header above contains a line with 'inDegrees', this indicates whether rotational values are in degrees (yes) or radians (no).

endheader
time	pelvis_tilt	pelvis_list	pelvis_rotation	pelvis_tx	pelvis_ty	pelvis_tz	hip_flexion_r	hip_adduction_r	hip_rotation_r	knee_angle_r	knee_angle_r_beta	ankle_angle_r	subtalar_angle_r	mtp_angle_r	hip_flexion_l	hip_adduction_l	hip_rotation_l	knee_angle_l	knee_angle_l_beta	ankle_angle_l	subtalar_angle_l	mtp_angle_l	L5_S1_Flex_Ext	L5_S1_Lat_Bending	L5_S1_axial_rotation	L4_L5_Flex_Ext	L4_L5_Lat_Bending	L4_L5_axial_rotation	L3_L4_Flex_Ext	L3_L4_Lat_Bending	L3_L4_axial_rotation	L2_L3_Flex_Ext	L2_L3_Lat_Bending	L2_L3_axial_rotation	L1_L2_Flex_Ext	L1_L2_Lat_Bending	L1_L2_axial_rotation	L1_T12_Flex_Ext	L1_T12_Lat_Bending	L1_T12_axial_rotation	Abs_r3	Abs_r2	Abs_r1	Abs_t1	Abs_t2	neck_flexion	neck_bending	neck_rotation	arm_flex_r	arm_add_r	arm_rot_r	elbow_flex_r	pro_sup_r	wrist_flex_r	wrist_dev_r	arm_flex_l	arm_add_l	arm_rot_l	elbow_flex_l	pro_sup_l	wrist_flex_l	wrist_dev_l
1.716667	0.256625	-2.371327	86.621460	0.174077	0.986017	0.464047	-6.721308	1.291420	-8.871813	5.169153	0.090219	36.886160	17.348155	0.000000	-8.409360	1.927553	2.915368	1.975080	0.034472	31.595646	-14.316112	0.000000	0.150467	0.779777	-0.168572	0.279432	1.037103	-0.179108	0.247202	1.895949	-0.179108	0.171969	1.895949	-0.147501	0.139724	1.590121	-0.136965	0.085977	1.207874	-0.126429	1.074772	8.820991	-0.937550	0.000000	0.000000	27.794641	8.050874	32.285770	12.354418	-15.866227	66.748693	6.332930	10.369925	-6.266508	0.195604	102.344054	-47.990528	21.855964	146.393119	87.475109	-3.022237	29.080727
1.733333	0.390831	-2.337507	86.667802	0.173746	0.986176	0.464096	-6.761485	1.413653	-9.008918	5.178125	0.090375	36.802122	17.359641	0.000000	-8.398070	1.800951	2.809666	2.068107	0.036095	31.644634	-14.255924	0.000000	0.145370	0.801027	-0.148375	0.269966	1.065366	-0.157648	0.238828	1.947617	-0.157648	0.166143	1.947617	-0.129828	0.134990	1.633454	-0.120554	0.083064	1.240791	-0.111281	1.038362	9.061379	-0.825215	0.000000	0.000000	27.775129	7.642167	31.885601	12.260516	-15.877176	67.678074	6.016916	10.347448	-6.174942	0.226146	101.857959	-47.414924	21.660221	146.462351	87.368273	-3.187613	28.741773
1.750000	0.547723	-2.275211	86.708436	0.173308	0.986390	0.463993	-6.843694	1.550128	-9.122064	5.161218	0.090080	36.743674	17.364192	0.000000	-8.430448	1.656380	2.661545	2.152449	0.037567	31.724678	-14.123671	0.000000	0.140111	0.825796	-0.117134	0.260201	1.098309	-0.124455	0.230189	2.007840	-0.124455	0.160133	2.007840	-0.102492	0.130107	1.683963	-0.095172	0.080060	1.279158	-0.087851	1.000802	9.341568	-0.651465	0.000000	0.000000	27.761914	7.103796	31.335911	12.048567	-15.939218	68.076389	5.840107	10.677650	-6.113475	0.242506	100.859659	-46.511529	21.234862	146.630065	87.225813	-3.429044	28.273582
1.766667	0.739224	-2.188891	86.754651	0.172754	0.986654	0.463790	-6.968473	1.718829	-9.204547	5.107504	0.089143	36.691658	17.350088	0.000000	-8.498117	1.477697	2.420851	2.233442	0.038981	31.854323	-13.851175	0.000000	0.134051	0.856039	-0.079410	0.248946	1.138532	-0.084373	0.220232	2.081373	-0.084373	0.153207	2.081373	-0.069484	0.124480	1.745635	-0.064521	0.076597	1.326005	-0.059558	0.957512	9.683686	-0.441655	0.000000	0.000000	27.748301	6.484986	30.768208	11.717008	-16.070538	67.737730	5.856055	11.557243	-6.128920	0.237631	99.411998	-45.360177	20.603592	146.874482	87.095029	-3.762725	27.610826
1.783333	0.933302	-2.073992	86.836990	0.172119	0.986945	0.463511	-7.135328	1.894332	-9.302666	5.033008	0.087843	36.659968	17.326943	0.000000	-8.607325	1.293379	2.227767	2.300276	0.040147	31.972273	-13.608051	0.000000	0.125989	0.886794	-0.043824	0.233973	1.179436	-0.046563	0.206987	2.156151	-0.046563	0.143992	2.156151	-0.038346	0.116993	1.808350	-0.035607	0.071990	1.373644	-0.032868	0.899924	10.031590	-0.243734	0.000000	0.000000	27.724903	5.889466	30.265074	11.294710	-16.247041	66.808920	6.048014	12.890818	-6.207867	0.209239	97.638221	-44.025804	19.793108	147.173179	86.979636	-4.112272	26.883975
1.800000	1.117267	-1.946029	86.963546	0.171442	0.987248	0.463186	-7.329566	2.068219	-9.429473	4.934955	0.086131	36.637772	17.294750	0.000000	-8.738186	1.111287	2.096126	2.356049	0.041121	32.073593	-13.400974	0.000000	0.117427	0.916321	-0.018727	0.218074	1.218707	-0.019897	0.192921	2.227943	-0.019897	0.134208	2.227943	-0.016386	0.109043	1.868562	-0.015216	0.067098	1.419381	-0.014045	0.838771	10.365606	-0.104153	0.000000	0.000000	27.693940	5.343465	29.862287	10.982617	-16.485577	67.653787	6.152739	12.723177	-6.107623	0.023501	95.654185	-42.626630	18.855515	147.502731	86.882218	-4.482968	26.120100
1.816667	1.278375	-1.815639	87.131902	0.170765	0.987535	0.462832	-7.535331	2.228662	-9.576887	4.822124	0.084162	36.623560	17.238234	0.000000	-8.877781	0.943382	2.037239	2.399598	0.041881	32.150288	-13.240471	0.000000	0.108985	0.942611	-0.008115	0.202395	1.253673	-0.008622	0.179051	2.291865	-0.008622	0.124558	2.291865	-0.007101	0.101203	1.922173	-0.006594	0.062274	1.460105	-0.006086	0.778466	10.663007	-0.045134	0.000000	0.000000	27.661007	4.900018	29.584959	10.682337	-16.748295	68.715336	6.343675	12.376428	-6.008361	-0.225377	93.599682	-41.250062	17.854409	147.832242	86.814275	-4.857455	25.384832
1.833333	1.400916	-1.691254	87.344909	0.170119	0.987791	0.462466	-7.741360	2.361102	-9.764011	4.698026	0.081996	36.617639	17.170046	0.000000	-9.013299	0.802817	2.061169	2.431006	0.042429	32.202318	-13.112344	0.000000	0.101160	0.963522	-0.021377	0.187865	1.281484	-0.022713	0.166196	2.342706	-0.022713	0.115616	2.342706	-0.018705	0.093937	1.964813	-0.017369	0.057803	1.492495	-0.016033	0.722578	10.899549	-0.118892	0.000000	0.000000	27.630172	4.603572	29.480951	10.446399	-16.998264	70.151361	6.566896	11.816276	-5.900532	-0.490664	91.635876	-40.016281	16.862789	148.148552	86.770132	-5.239606	24.768109
1.850000	1.489110	-1.589633	87.561377	0.169583	0.988000	0.462082	-7.924758	2.466640	-9.953124	4.569772	0.079758	36.618891	17.096828	0.000000	-9.130818	0.690316	2.145792	2.444290	0.042661	32.229399	-13.026041	0.000000	0.096217	0.979599	-0.053535	0.178685	1.302867	-0.056881	0.158075	2.381797	-0.056881	0.109966	2.381797	-0.046843	0.089347	1.997598	-0.043497	0.054978	1.517399	-0.040151	0.687269	11.081421	-0.297744	0.000000	0.000000	27.608254	4.443065	29.519120	10.276123	-17.223169	71.794433	6.819878	11.078338	-5.801836	-0.766403	89.887929	-39.006923	15.925202	148.431109	86.764565	-5.554324	24.293833
1.866667	1.561102	-1.523000	87.772115	0.169115	0.988187	0.461731	-8.070142	2.560150	-10.144737	4.435702	0.077418	36.604073	17.047222	0.000000	-9.220350	0.589646	2.323696	2.424965	0.042324	32.223483	-13.000894	0.000000	0.094853	0.994340	-0.101785	0.176151	1.322472	-0.108146	0.155833	2.417638	-0.108146	0.108407	2.417638	-0.089062	0.088080	2.027658	-0.082700	0.054199	1.540233	-0.076338	0.677522	11.248174	-0.566095	0.000000	0.000000	27.598641	4.336095	29.705620	10.181788	-17.428305	73.573027	7.078585	10.150111	-5.711304	-1.072949	88.384083	-38.234160	15.022586	148.680231	86.796848	-5.821899	23.962614
1.883333	1.588055	-1.489652	87.968140	0.168802	0.988298	0.461391	-8.171913	2.614077	-10.332523	4.311284	0.075246	36.610790	17.035233	0.000000	-9.280887	0.529222	2.575256	2.376364	0.041475	32.193392	-13.012770	0.000000	0.096166	1.002574	-0.173131	0.178590	1.333424	-0.183951	0.157992	2.437659	-0.183951	0.109908	2.437659	-0.151489	0.089300	2.044449	-0.140669	0.054949	1.552987	-0.129848	0.686906	11.341319	-0.962900	0.000000	0.000000	27.598840	4.376805	29.996146	10.195250	-17.553022	75.284447	7.301015	9.323132	-5.629359	-1.291187	87.391519	-37.827494	14.299908	148.881913	86.879614	-5.952547	23.805959
1.900000	1.572822	-1.491468	88.105829	0.168685	0.988341	0.461078	-8.222689	2.627784	-10.437164	4.197362	0.073258	36.626772	17.028346	0.000000	-9.312316	0.511515	2.777333	2.298284	0.040113	32.168257	-12.937728	0.000000	0.099811	1.004818	-0.254108	0.185360	1.336409	-0.269990	0.163980	2.443116	-0.269990	0.114074	2.443116	-0.222344	0.092685	2.049026	-0.206463	0.057032	1.556464	-0.190581	0.712943	11.366707	-1.413272	0.000000	0.000000	27.609403	4.507173	30.325525	10.305371	-17.603907	76.822914	7.482719	8.598225	-5.551671	-1.421034	86.951117	-37.769846	13.782128	149.023659	87.017255	-5.956429	23.801732
1.916667	1.530930	-1.533986	88.183891	0.168750	0.988308	0.460790	-8.218695	2.616242	-10.458321	4.092794	0.071433	36.654218	17.051504	0.000000	-9.316613	0.524456	3.066885	2.175570	0.037971	32.101288	-12.973171	0.000000	0.106278	1.003198	-0.341888	0.197368	1.334253	-0.363256	0.174603	2.439176	-0.363256	0.121465	2.439176	-0.299152	0.098689	2.045721	-0.277784	0.060727	1.553954	-0.256416	0.759130	11.348376	-1.901478	0.000000	0.000000	27.627902	4.685892	30.645974	10.514154	-17.590965	78.297420	7.606995	7.864536	-5.462389	-1.453530	87.093639	-38.094790	13.535943	149.095060	87.204690	-5.988260	23.839225
